# xmcd
#
# Track frame offsets:
#	150
#	17821
#	57282
#	92359
#	115152
#	127069
#	153524
#	181693
#	217490
#	239737
#	265381
#	279938
#
# Disc length: 3940 seconds
#
# Revision: 1
# Processed by: cddbd v1.5.2PL0 Copyright (c) Steve Scherf et al.
# Submitted via: audiograbber 1.83.01
#
DISCID=ae0f620c
DTITLE=John Walden - John Walden's Blues Band
DYEAR=1997
DGENRE=Blues
TTITLE0=Get into my Mercedes
TTITLE1=Sea Song
TTITLE2=I Put A Spell On You
TTITLE3=Ami
TTITLE4=(You Ain't Nothing but a ) Hound Dog
TTITLE5=Night Train
TTITLE6=Hey Mitzi
TTITLE7=Season of the Witch
TTITLE8=Here I Come
TTITLE9=Watermelon Man
TTITLE10=Round and Round
TTITLE11=Baby Please Don't Go
EXTD="JWBB 001 CD"
EXTT0=
EXTT1=
EXTT2=
EXTT3=
EXTT4=
EXTT5=
EXTT6=
EXTT7=
EXTT8=
EXTT9=
EXTT10=
EXTT11=
PLAYORDER=
